# xmcd
#
# Track frame offsets: 
#        150
#        12921
#        26893
#        36550
#        46831
#        56614
#        66756
#        80152
#        92175
#        101310
#        115367
#        129451
#        139658
#        147065
#        160282
#        170525
#        185796
#        204602
#        217740
#        228001
#        238042
#        250206
#        263510
#        277822
#        288900
#
# Disc length: 3982 seconds
#
# Revision: 0
# Processed by: cddbd v1.5.2PL0 Copyright (c) Steve Scherf et al.
# Submitted via: ExactAudioCopyFreeDBPlugin 1.0
#
DISCID=650f8c19
DTITLE=Slim Harpo - The Blues - STARBCD004
DYEAR=2013
DGENRE=Blues
TTITLE0=I Got Love If You Want It
TTITLE1=I'm A King Bee
TTITLE2=Wonderin' And Worryin'
TTITLE3=You'll Be Sorry One Day
TTITLE4=Strange Love 
TTITLE5=One More Day
TTITLE6=My Home Is A Prison
TTITLE7=Late Last Night
TTITLE8=Harmonica Blues
TTITLE9=What A Dream
TTITLE10=Blues Hang-Over
TTITLE11=That Ain't Your Business 
TTITLE12=Bobby-Sox Baby
TTITLE13=Rainin' In My Heart
TTITLE14=Snoopin' Around
TTITLE15=Dream Girl
TTITLE16=This Ain't No Place For Me
TTITLE17=I Got Love If You Want It (alt. rec. March 1957)
TTITLE18=Buzz Me Baby
TTITLE19=Talking Blues
TTITLE20=One Of These Days (alt)
TTITLE21=Moody Blues
TTITLE22=Dream Girl (alt)
TTITLE23=My Little Queen Bee
TTITLE24=Don't Start Cryin' Now
EXTD=
EXTT0=
EXTT1=
EXTT2=
EXTT3=
EXTT4=
EXTT5=
EXTT6=
EXTT7=
EXTT8=
EXTT9=
EXTT10=
EXTT11=
EXTT12=
EXTT13=
EXTT14=
EXTT15=
EXTT16=
EXTT17=
EXTT18=
EXTT19=
EXTT20=
EXTT21=
EXTT22=
EXTT23=
EXTT24=
PLAYORDER=
